PathFileType	4	(X/Y/Z)	C:\Users\adpatrick\OneDrive - nih.no\Desktop\WebApp1080sync\WebAppv0.1\fp22_m505_left 2_Sports2D\fp22_m505_left 2_Sports2D_m_person00.trc
DataRate	CameraRate	NumFrames	NumMarkers	Units	OrigDataRate	OrigDataStartFrame	OrigNumFrames
60	60	10	22	m	60	108	869
Frame#	Time	Hip			RHip			RKnee			RAnkle			RBigToe			RSmallToe			RHeel			LHip			LKnee			LAnkle			LBigToe			LSmallToe			LHeel			Neck			Head			Nose			RShoulder			RElbow			RWrist			LShoulder			LElbow			LWrist		
		X1	Y1	Z1	X2	Y2	Z2	X3	Y3	Z3	X4	Y4	Z4	X5	Y5	Z5	X6	Y6	Z6	X7	Y7	Z7	X8	Y8	Z8	X9	Y9	Z9	X10	Y10	Z10	X11	Y11	Z11	X12	Y12	Z12	X13	Y13	Z13	X14	Y14	Z14	X15	Y15	Z15	X16	Y16	Z16	X17	Y17	Z17	X18	Y18	Z18	X19	Y19	Z19	X20	Y20	Z20	X21	Y21	Z21	X22	Y22	Z22
108	1.8	0.7020339122843595	0.8171867824174294	0.0301	0.5699756063201129	0.8141730739376021	0.0301	0.5051415410950524	0.32633700094051726	0.0179	0.3888160406373205	-0.1575984989683414	0.023	0.5141938002926072	-0.26758237209820285	0.2179	0.42700714888192093	-0.28404585465102417	0.1804	0.34117093176886837	-0.2269698944631575	-0.0119	0.8044116671080956	0.8233172541760506	-0.0301	0.9840187343616195	0.39465504693966513	-0.0179	1.0188752566909143	-0.10121927026429199	0.023	1.1917370321305214	-0.21159093448233093	0.2179	1.2020196468151358	-0.1791231322186016	0.1804	0.980528085034427	-0.1759015573535608	-0.0119	0.791729251267935	1.4860990586263934	-0.0008	0.9153903500276985	1.7891410185556567	0.0655	0.9613091724268068	1.597559656030537	0.1076	0.5600374835560873	1.3869661270517368	-0.01275	0.48592767861568037	1.0170265000041196	0.0119	0.5960610250635053	0.7299655984165595	0.0002	0.9470210850063399	1.36335805245078	0.01275	0.9888996828389446	1.042376943621767	-0.0119	1.0912510820093	0.7801238381030382	-0.0002
109	1.8166666666666667	0.7022484234636662	0.8169998293390099	0.0301	0.5706149770602968	0.8129650744531813	0.0301	0.5051462286291485	0.3250042734308697	0.0179	0.38953158109133235	-0.1571435727629512	0.023	0.5147792460715197	-0.26759440653467564	0.2179	0.42748379200244313	-0.28385599536452294	0.1804	0.34118370710299917	-0.22715273479408138	-0.0119	0.8049484034760255	0.8231016623686773	-0.0301	0.9843016451380437	0.39413826665016555	-0.0179	1.0190264329075338	-0.10120181481612398	0.023	1.1934530370950023	-0.21204858884028696	0.2179	1.2024725530732756	-0.17918272780245587	0.1804	0.9798386226370795	-0.17565362300572754	-0.0119	0.7904339386893954	1.4863131411399744	-0.0008	0.9136941074051155	1.789594606249371	0.0655	0.9597626865041688	1.5972644701526602	0.1076	0.5588404019732232	1.3870269429309783	-0.01275	0.4854408966818967	1.0167556808449474	0.0119	0.5945949242303974	0.7298882361080519	0.0002	0.9463909947450269	1.3638934676744474	0.01275	0.9877369701287871	1.0428773072235724	-0.0119	1.0900190822974043	0.7807172038854713	-0.0002
110	1.8333333333333333	0.7026771677776567	0.8165668617621825	0.0301	0.571555801592386	0.8119584314464705	0.0301	0.5051799790312201	0.32415083047061977	0.0179	0.39039975088821943	-0.15666872994405254	0.023	0.5154503878463108	-0.2674679157300605	0.2179	0.42801332415959276	-0.283757771413035	0.1804	0.34132991718063604	-0.2274085991038117	-0.0119	0.8053801187472115	0.8229193759137102	-0.0301	0.9846760638087254	0.39347386295477393	-0.0179	1.0191546374205704	-0.10088695145700123	0.023	1.1945572096650545	-0.21217388547815452	0.2179	1.2027658722903878	-0.17918350429871896	0.1804	0.9791603450421161	-0.17523005925114946	-0.0119	0.7892723322913976	1.48662497476706	-0.0008	0.9122690430131731	1.7895639343215288	0.0655	0.9585568190651647	1.596603518055675	0.1076	0.5577457016304231	1.387160486334212	-0.01275	0.48476026730964233	1.0165599548398383	0.0119	0.5930460482779879	0.7297465472588347	0.0002	0.9457076083633361	1.3646340951078884	0.01275	0.986410881472087	1.0428993372149322	-0.0119	1.0889493094651617	0.780953099551418	-0.0002
111	1.8499999999999999	0.703234500185464	0.8156275407774213	0.0301	0.5726472966284251	0.8107538078168933	0.0301	0.5051541533831095	0.32386078413888525	0.0179	0.391136348910293	-0.15625933051281746	0.023	0.5159567879633836	-0.2672801286376989	0.2179	0.428437518979678	-0.2837552691767258	0.1804	0.3414641884993982	-0.22766789624677364	-0.0119	0.8057709826514105	0.822272848942639	-0.0301	0.9850515343587485	0.39271731791806025	-0.0179	1.01922612160569	-0.10030766166013473	0.023	1.1950402073885213	-0.2119366361920354	0.2179	1.202928438031036	-0.17921725481742262	0.1804	0.9786592543107547	-0.1747926327163788	-0.0119	0.7883868181905564	1.4869070158920565	-0.0008	0.9111483313486081	1.7893371619846132	0.0655	0.9577873223984202	1.5961553448727774	0.1076	0.5567862769160418	1.387256508264776	-0.01275	0.4839123779043668	1.0165691160239936	0.0119	0.5915874905294716	0.7295106572541559	0.0002	0.9448717112092829	1.3653680057948618	0.01275	0.9850421967027088	1.0425142131922527	-0.0119	1.0879602079521322	0.7807921885877545	-0.0002
112	1.8666666666666667	0.7037108227016852	0.8143900742460438	0.0301	0.57356212930586	0.8095219358848694	0.0301	0.5051622079728801	0.32396845496730353	0.0179	0.39152852379804837	-0.15602628891534928	0.023	0.5162674402999294	-0.2670054967635151	0.2179	0.4287935943724288	-0.2837197876595195	0.1804	0.3415224840250601	-0.22793681119157969	-0.0119	0.8060685239388798	0.8213420654834593	-0.0301	0.9853095296851654	0.3919550016385021	-0.0179	1.0192514798700882	-0.09956661103536756	0.023	1.1949732534038473	-0.2113729982681179	0.2179	1.2028885893298193	-0.1792418063582528	0.1804	0.9784092621644163	-0.1743398202004467	-0.0119	0.7877909957588972	1.4870780353842692	-0.0008	0.9101892574988248	1.7890772509734434	0.0655	0.9573527872024137	1.5960981795372615	0.1076	0.5559417500560945	1.3872189659114706	-0.01275	0.4829181934750781	1.016841039715042	0.0119	0.5902537876415477	0.7290663346273699	0.0002	0.9439573392871543	1.3658875933437697	0.01275	0.983896130001854	1.041857709439018	-0.0119	1.0869294058764916	0.7803812941329263	-0.0002
113	1.8833333333333333	0.7038726832639995	0.8132233600175577	0.0301	0.5740342275045593	0.8086119144344975	0.0301	0.5052388823194994	0.32432485210214657	0.0179	0.3915155979159091	-0.15605837225940267	0.023	0.5163901561622574	-0.26657726565641454	0.2179	0.4291534216668614	-0.28356480014387453	0.1804	0.341497698990195	-0.22827841724787445	-0.0119	0.8061418059017182	0.8205529174126898	-0.0301	0.9853237579816612	0.39135604335753105	-0.0179	1.0192750200655354	-0.0988281571728487	0.023	1.1944729658734343	-0.21051105897946581	0.2179	1.202651889264352	-0.17910389153484632	0.1804	0.9783447070671923	-0.17381864325493404	-0.0119	0.7874057825638082	1.4871702421807562	-0.0008	0.9092278783642691	1.788866917936733	0.0655	0.9570396100088118	1.5962408640390957	0.1076	0.5551396110828166	1.3870747287864282	-0.01275	0.48178095145810906	1.0173643760186577	0.0119	0.5889553100722704	0.7284347461154795	0.0002	0.9431508230114001	1.3660647293782062	0.01275	0.9831940634859951	1.0410498840344304	-0.0119	1.0858121019386542	0.7798201921314728	-0.0002
114	1.9	0.703544802268617	0.8122503394475612	0.0301	0.574018276409597	0.8080114766255875	0.0301	0.5051570487266838	0.3249250076613718	0.0179	0.39114340204100057	-0.15627458887388213	0.023	0.5162631110705167	-0.26609693228411174	0.2179	0.42950727114866455	-0.28334463658520515	0.1804	0.341318162538391	-0.22871340881624996	-0.0119	0.8059483348145606	0.8199749435673317	-0.0301	0.9851068040314085	0.39108366006343703	-0.0179	1.0192578262385892	-0.09818983863437866	0.023	1.1937912599555807	-0.20948533930341007	0.2179	1.2024709476071034	-0.17877484953838918	0.1804	0.9783542289498233	-0.1733690252329019	-0.0119	0.7871560019480903	1.4872662512081107	-0.0008	0.908368243379664	1.7888999432878663	0.0655	0.9565796590691593	1.5963565236493835	0.1076	0.554277368952027	1.3869530736929303	-0.01275	0.4805342700985298	1.018018250653182	0.0119	0.5875868990430596	0.7278108763354555	0.0002	0.9425882910195846	1.3658135035567054	0.01275	0.9829223657071418	1.0400919916536657	-0.0119	1.0847191990921823	0.7790475960903305	-0.0002
115	1.9166666666666667	0.702647456186721	0.8114901177958972	0.0301	0.5734823556839619	0.8075889764436862	0.0301	0.5047031724019858	0.325659881650673	0.0179	0.3905871847660465	-0.15654683232279018	0.023	0.5159308902182895	-0.26577543563489714	0.2179	0.42986825688305386	-0.2831560628403201	0.1804	0.3410031750173124	-0.2291587746884526	-0.0119	0.8054635520713385	0.8195381705694864	-0.0301	0.9848017661348474	0.39114034531561354	-0.0179	1.019069577949046	-0.09770650618093692	0.023	1.1931486679660843	-0.2086190946548088	0.2179	1.2025671002556424	-0.17838147607280438	0.1804	0.9784183484377772	-0.17318717532146924	-0.0119	0.7869168805426159	1.4874052057686473	-0.0008	0.9078498272016922	1.7892369578628573	0.0655	0.9558505180929769	1.59642062225437	0.1076	0.5533162209233862	1.3870039854156209	-0.01275	0.47928630641750375	1.0185629699071428	0.0119	0.5861501047054588	0.7273709366573504	0.0002	0.9423280005869007	1.3651672054146715	0.01275	0.9828815028711023	1.0389481677934864	-0.0119	1.0837070935512871	0.7780780664561364	-0.0002
116	1.9333333333333333	0.701261106884113	0.8111330306780931	0.0301	0.5722786180342058	0.807447007489304	0.0301	0.5040157931822166	0.3262344378197717	0.0179	0.3901053367688103	-0.15691598207658042	0.023	0.5155857167780014	-0.2657452376129721	0.2179	0.43026073507760004	-0.2830618085063297	0.1804	0.34077385175754343	-0.22949935445542619	-0.0119	0.8045604261644553	0.8193801231258735	-0.0301	0.9845015183616261	0.3914406017740623	-0.0179	1.0186562016437837	-0.09750579047506437	0.023	1.192656823175094	-0.20823437881981344	0.2179	1.2028344169461633	-0.17804109461527154	0.1804	0.9785915020951477	-0.1732281642818097	-0.0119	0.7864864544052732	1.4875306579941048	-0.0008	0.9076848314580497	1.789567902298752	0.0655	0.9550365857500515	1.5966179873840718	0.1076	0.5523668882244547	1.3873253643071464	-0.01275	0.47817345248711574	1.018827241592538	0.0119	0.5847287314510146	0.7272220466876625	0.0002	0.942364732031722	1.3643604430447116	0.01275	0.98289637740232	1.037735667016629	-0.0119	1.0826123172146698	0.7771433874495233	-0.0002
117	1.95	0.6996988035458249	0.8113465760639222	0.0301	0.5704390224471896	0.8076054134334222	0.0301	0.503430348688394	0.32649919154124596	0.0179	0.38981973665099556	-0.15749132539410815	0.023	0.5153937896660663	-0.2659835786903577	0.2179	0.430615241895846	-0.28308583300627854	0.1804	0.34080449984679057	-0.22970552694940485	-0.0119	0.8031581433382388	0.8195330485884434	-0.0301	0.9841178481724657	0.3919534191152783	-0.0179	1.0181402749258723	-0.097679958256705	0.023	1.1924864321720583	-0.20831449963223608	0.2179	1.2030590292703651	-0.1777769678553226	0.1804	0.9788591875786105	-0.17330787234037204	-0.0119	0.7858232167315183	1.4875896156266142	-0.0008	0.9077327946304088	1.7896785988055401	0.0655	0.9544313046886806	1.5972024729326761	0.1076	0.5515867242250156	1.3879335800936228	-0.01275	0.4772737261333682	1.0188602636340647	0.0119	0.583357417040239	0.7274799172419757	0.0002	0.9425522765639022	1.3637353528198088	0.01275	0.982892914804242	1.0367494186242074	-0.0119	1.081293328937326	0.7764859132456413	-0.0002
